if(_typeface_js&&_typeface_js.loadFace)_typeface_js.loadFace({"glyphs":{"S":{"x_min":-59.6875,"x_max":764.359375,"ha":703,"o":"m 386 921 q 291 862 333 901 q 250 775 250 824 q 270 691 250 727 q 322 624 290 655 q 394 559 355 592 q 471 490 432 526 q 543 415 510 454 q 615 219 615 327 q 588 97 615 153 q 514 1 560 40 q 408 -66 468 -37 q 158 -122 292 -122 q 13 -83 80 -122 q -39 -32 -18 -64 q -59 42 -59 0 q -27 111 -59 84 q 52 140 5 138 l 82 141 q 80 85 79 105 q 82 62 82 65 q 85 41 82 59 q 91 15 87 23 q 105 -5 96 6 q 128 -22 115 -16 q 205 -36 165 -36 q 280 -27 245 -36 q 352 -1 316 -18 q 421 44 389 16 q 468 148 471 82 q 396 305 468 221 q 283 424 359 348 q 175 537 208 499 q 103 688 103 621 q 129 810 103 755 q 200 904 156 865 q 301 972 244 943 q 532 1029 412 1029 q 683 987 613 1029 q 741 926 719 966 q 764 832 764 885 q 630 740 764 818 q 461 649 497 662 l 454 730 q 516 760 463 735 q 635 844 635 816 q 497 940 638 937 q 386 921 440 940 "},"\u0000":{"x_min":0,"x_max":0,"ha":0},"/":{"x_min":4.0625,"x_max":683.65625,"ha":688,"o":"m 527 931 q 580 1044 554 1017 q 669 1070 607 1070 q 679 1064 674 1070 q 683 1047 683 1057 q 678 1026 683 1037 l 151 -29 q 138 -56 147 -36 q 122 -90 130 -77 q 101 -119 114 -103 q 19 -151 74 -151 q 4 -129 4 -151 q 26 -68 4 -107 q 64 10 48 -29 q 196 283 79 51 q 419 718 314 516 q 527 931 524 921 "},"K":{"x_min":-37.984375,"x_max":1450.71875,"ha":1210,"o":"m 177 555 q 50 626 97 585 q -37 779 -37 698 q 124 991 -37 922 q 293 1028 211 1028 q 495 1003 375 1028 q 661 979 614 979 q 757 993 708 979 q 828 1009 806 1008 q 749 872 813 911 q 663 722 697 802 q 619 600 629 642 l 607 558 q 772 709 686 617 q 914 857 859 801 q 1015 949 970 914 q 1224 1029 1120 1029 q 1300 1019 1255 1029 q 1375 996 1345 1008 q 1428 961 1405 984 q 1450 911 1450 938 q 1404 839 1450 884 q 1332 794 1357 795 l 1327 808 q 1224 914 1296 914 q 1060 851 1131 914 q 953 731 998 795 q 798 544 865 605 l 940 266 q 973 203 952 244 q 1004 145 994 163 q 1029 107 1014 127 q 1079 89 1054 73 q 1156 152 1103 105 q 1320 311 1208 200 l 1324 219 q 1028 -35 1091 -35 q 935 15 982 -35 q 832 183 889 66 l 697 487 l 566 423 q 473 145 514 220 q 370 12 422 48 q 204 -37 296 -37 q 103 -18 148 -37 q 33 26 58 0 q -16 132 -16 82 q 84 210 -16 200 q 142 213 109 213 l 142 173 q 174 56 142 82 q 217 44 189 44 q 272 60 244 44 q 319 104 299 77 q 355 166 339 131 q 382 247 370 201 q 402 328 394 293 q 419 408 410 364 q 432 473 427 453 l 446 537 q 557 804 489 734 q 619 862 576 840 q 498 883 590 866 q 361 900 406 900 q 274 894 316 900 q 182 876 231 889 q 100 836 133 863 q 67 773 67 809 q 198 647 67 701 q 177 555 198 581 "},"7":{"x_min":-75.28125,"x_max":554.109375,"ha":440,"o":"m 551 918 q 419 663 504 817 q 143 94 216 289 q 119 36 136 73 q 103 0 103 0 l -51 0 q 149 465 -6 209 q 305 704 226 588 q 392 830 385 819 q 240 785 341 801 q 62 768 139 768 q -44 773 -14 768 q -75 797 -75 779 q -65 828 -75 811 q -53 849 -56 844 q -38 876 -42 870 q -30 896 -35 883 q -21 919 -25 910 q -10 940 -16 928 q 16 963 2 963 q 218 948 143 948 q 378 956 293 948 q 518 965 464 965 q 539 954 525 965 q 554 934 554 943 q 551 918 554 926 "},"d":{"x_min":6.78125,"x_max":716.875,"ha":619,"o":"m 362 141 q 218 20 291 59 q 108 -19 145 -19 q 52 -5 71 -19 q 23 31 32 8 q 6 134 6 73 q 40 275 6 195 q 124 420 73 356 q 242 527 176 484 q 359 569 308 569 q 458 555 410 569 l 548 877 q 585 968 567 955 q 637 988 611 986 q 693 990 663 990 l 716 990 q 693 895 714 967 q 576 500 651 770 q 502 177 502 229 q 507 148 502 152 q 525 143 512 143 q 580 183 538 143 q 702 307 621 222 l 702 222 q 667 187 693 212 q 630 149 642 161 l 594 113 q 557 77 571 90 q 522 47 543 65 q 489 19 502 29 q 459 0 475 9 q 411 -19 430 -19 q 355 70 355 -19 q 362 141 352 103 m 437 476 q 413 494 434 485 q 373 502 392 502 q 264 458 315 502 q 181 338 213 415 q 149 193 149 262 q 207 115 149 107 q 311 167 246 118 q 383 244 377 216 l 437 476 "},",":{"x_min":76.640625,"x_max":241.453125,"ha":328,"o":"m 76 40 q 104 105 76 70 q 170 140 132 140 q 225 120 208 140 q 241 72 241 99 q 232 20 241 45 q 205 -37 223 -5 q 176 -92 188 -70 q 124 -179 131 -172 l 86 -165 q 128 -19 112 -92 q 89 -4 102 -19 q 76 40 76 10 "},"Y":{"x_min":-56.296875,"x_max":980.03125,"ha":895,"o":"m 516 -102 l 349 -198 q 205 -287 252 -247 q 158 -366 158 -326 q 175 -424 158 -406 q 221 -447 192 -442 q 325 -408 274 -444 q 426 -308 376 -373 q 495 -176 476 -244 l 516 -102 m 283 1008 q 358 1029 314 1029 q 402 1009 402 1029 q 383 934 402 998 q 350 813 364 871 q 293 618 335 756 q 196 242 196 307 q 211 186 195 205 q 248 168 228 168 q 360 199 296 168 q 485 273 423 230 q 597 380 548 316 q 663 512 647 444 l 725 755 q 764 903 735 801 q 805 1008 793 1004 l 952 1008 l 717 71 l 980 311 l 975 222 l 700 -22 q 263 -508 542 -433 q 148 -524 204 -524 q 49 -510 92 -524 q -25 -461 5 -495 q -56 -383 -56 -427 q -20 -311 -56 -339 l 528 -18 l 634 309 q 374 85 524 182 q 137 -12 224 -12 q 53 29 86 -12 q 21 168 21 71 q 35 295 21 233 q 57 386 50 356 q 83 474 65 416 q 109 552 102 531 q 164 714 126 607 l 231 908 l 37 773 l 29 766 q 12 760 18 760 q -1 772 6 760 q -9 800 -9 784 q 4 826 -9 816 l 283 1008 "},"E":{"x_min":-46.796875,"x_max":1022.765625,"ha":839,"o":"m 376 162 l 415 161 q 440 162 432 161 q 503 139 445 161 q 675 90 647 90 q 737 107 703 90 q 837 175 755 110 q 982 306 918 240 l 999 211 q 939 157 978 193 q 882 106 900 122 q 831 63 864 90 q 779 24 798 36 q 731 -5 760 11 q 680 -30 702 -23 q 564 -38 621 -49 q 551 -33 560 -38 q 531 -22 541 -27 q 497 -7 520 -16 q 445 12 475 1 q 258 73 392 32 q 133 -6 196 25 q 26 -38 71 -38 q -8 -29 10 -38 q -46 29 -46 -12 q 35 100 -46 65 q 56 109 52 107 l 230 189 q 307 427 248 215 q 221 413 261 421 q 171 403 180 404 q 153 411 162 403 q 144 436 144 418 q 182 496 147 487 q 335 535 227 514 q 458 855 410 790 q 514 929 476 893 q 389 927 461 927 q 140 887 219 927 q 60 775 60 846 q 94 703 60 737 q 193 645 129 669 q 187 593 193 621 q 173 559 181 565 q 14 649 69 596 q -40 759 -40 702 q 79 955 -40 881 q 404 1029 198 1029 l 601 1029 q 1022 1011 1022 1029 q 1009 990 1022 1003 l 942 912 q 871 889 906 889 q 744 903 835 889 q 611 919 653 917 q 569 759 606 899 q 510 559 532 619 q 671 566 598 566 q 824 562 744 566 q 847 530 849 562 q 825 476 846 499 q 777 454 803 454 q 483 446 577 454 l 483 445 q 354 161 448 318 l 376 162 "},"y":{"x_min":-2.71875,"x_max":670.078125,"ha":583,"o":"m 337 114 q 76 -19 185 -19 q 15 12 34 -19 q -2 96 -2 45 q 119 530 -2 183 q 229 547 122 547 l 252 547 q 225 458 252 545 q 139 155 141 196 q 183 114 137 114 q 282 152 221 114 q 352 210 343 190 l 423 466 q 464 537 438 524 q 527 547 484 547 l 573 547 q 530 402 558 503 q 491 259 503 301 q 460 141 470 179 l 455 122 q 670 309 609 251 l 666 222 l 440 18 l 440 15 q 390 -139 424 -70 q 315 -248 357 -207 q 139 -331 229 -331 q 51 -301 92 -331 q 10 -231 10 -271 q 38 -162 10 -190 q 116 -105 65 -134 l 321 33 l 337 114 m 312 -59 l 187 -139 q 151 -162 164 -152 q 125 -190 138 -172 q 112 -229 112 -208 q 166 -265 115 -265 q 260 -211 223 -261 q 312 -59 297 -161 "},"\"":{"x_min":88.171875,"x_max":405.578125,"ha":460,"o":"m 88 837 q 136 1043 88 1043 q 206 1035 189 1043 q 223 1008 223 1028 q 206 945 223 987 q 159 822 188 902 q 126 734 129 742 l 88 734 q 89 766 89 748 l 88 837 m 269 837 q 318 1043 269 1043 q 388 1035 370 1043 q 405 1008 405 1028 q 392 951 405 988 q 340 822 368 898 q 308 734 312 745 l 270 734 q 271 766 271 748 l 269 837 "},"g":{"x_min":34.59375,"x_max":715.53125,"ha":629,"o":"m 375 -268 q 287 -343 333 -316 q 204 -370 241 -370 q 140 -361 168 -370 q 91 -328 111 -351 q 70 -284 70 -305 q 72 -253 70 -263 q 82 -233 75 -244 q 94 -217 90 -223 q 112 -199 99 -210 q 130 -183 126 -187 q 153 -165 135 -179 q 176 -148 172 -151 l 366 6 l 383 103 q 241 7 299 33 q 134 -19 184 -19 q 59 22 84 -19 q 34 121 34 64 q 52 241 34 177 q 104 364 70 305 q 184 468 139 422 q 290 542 229 514 q 413 569 350 569 q 617 543 475 569 l 516 113 q 572 165 535 130 q 624 215 609 200 q 715 307 665 252 l 712 222 l 499 15 q 375 -268 467 -160 m 355 -79 l 244 -173 q 227 -186 240 -177 q 210 -200 215 -196 q 195 -215 204 -205 q 181 -234 185 -225 q 169 -276 169 -259 q 182 -303 170 -293 q 220 -313 193 -313 q 309 -250 277 -307 q 355 -79 342 -193 m 180 221 q 254 105 183 88 q 397 206 308 106 l 467 503 q 400 513 417 513 q 316 491 355 513 q 248 426 277 470 q 180 221 183 326 "},"e":{"x_min":18.3125,"x_max":577.84375,"ha":496,"o":"m 208 389 q 319 316 260 323 q 387 355 358 316 q 414 434 416 394 q 397 490 413 475 q 350 504 381 504 q 294 491 320 504 q 253 461 268 477 q 208 389 221 427 m 576 303 l 577 222 q 385 42 470 103 q 223 -19 300 -19 q 32 80 70 -19 q 18 174 18 119 q 59 363 18 274 q 178 511 101 453 q 351 569 256 569 q 511 450 511 569 q 448 315 511 373 q 308 258 386 258 q 243 274 277 258 q 185 326 209 290 q 156 212 156 265 q 269 62 156 55 q 342 90 299 62 q 420 150 386 119 q 505 234 453 182 q 576 303 556 286 "},"J":{"x_min":-111.90625,"x_max":692.46875,"ha":592,"o":"m 589 889 q 472 569 518 765 q 659 584 562 569 q 638 507 659 530 q 453 474 550 482 l 377 110 q 461 157 394 120 q 577 229 529 193 q 686 322 626 264 l 682 226 q 523 96 630 164 q 357 6 417 28 q 254 -214 326 -138 q 85 -290 182 -290 q -3 -270 41 -290 q -80 -210 -48 -250 q -111 -131 -111 -171 q -50 -6 -111 -41 l 232 70 q 277 285 240 125 q 320 473 314 446 l 320 474 q 21 575 100 486 q -7 625 0 598 q -5 682 -16 643 q 23 746 6 720 q 59 797 40 771 q 108 849 79 823 q 170 897 138 874 q 245 941 203 921 q 332 975 287 961 q 540 1007 429 1007 q 620 1021 571 1007 q 692 1037 670 1036 q 657 945 684 986 q 589 889 631 903 m 99 644 q 159 594 99 614 q 341 569 219 574 q 408 760 367 681 q 499 883 448 840 q 359 862 433 883 q 239 811 285 841 q 160 746 193 781 q 99 644 99 682 m 217 -44 q 138 -64 193 -52 q 59 -84 82 -76 q 11 -140 11 -101 q 35 -204 11 -179 q 92 -230 59 -230 q 147 -211 125 -230 q 185 -154 168 -193 q 217 -44 202 -108 "},"|":{"x_min":61.046875,"x_max":437.453125,"ha":501,"o":"m 202 486 q 317 961 309 925 q 333 1011 325 996 q 358 1027 340 1026 q 406 1029 375 1029 q 437 1026 437 1029 l 181 -29 q 177 -55 179 -36 q 172 -85 174 -74 q 160 -105 169 -96 q 137 -115 151 -115 l 61 -115 q 202 486 94 46 "},"^":{"x_min":-88.84375,"x_max":501.890625,"ha":452,"o":"m 261 823 l -48 486 l -88 515 q 18 669 -57 569 q 174 852 95 768 q 280 937 254 937 q 355 829 300 937 q 455 619 411 722 q 501 508 499 517 l 453 480 q 358 648 439 501 q 261 823 277 795 "},"q":{"x_min":37.296875,"x_max":695.171875,"ha":608,"o":"m 380 -298 l 251 -257 l 328 -29 q 252 -37 293 -37 q 37 174 37 -37 q 127 437 37 314 q 236 532 169 495 q 374 569 303 569 q 585 515 444 569 l 489 107 q 594 211 529 149 q 695 310 660 272 l 693 222 l 467 8 l 467 5 q 423 -161 454 -47 q 380 -298 392 -276 m 177 197 q 285 37 175 37 q 334 45 311 37 l 437 495 q 370 507 387 507 q 274 465 318 507 q 203 345 229 422 q 177 197 177 268 "},"b":{"x_min":52.90625,"x_max":743.328125,"ha":656,"o":"m 294 636 q 434 783 364 681 q 505 941 505 885 q 459 986 505 986 q 396 908 438 986 q 324 746 354 830 q 294 636 294 662 m 111 454 q 152 604 121 495 q 196 757 184 714 q 238 856 208 801 q 307 960 267 911 q 399 1040 347 1009 q 502 1072 451 1072 q 607 983 607 1072 q 267 497 607 810 q 247 416 262 475 q 223 322 231 358 q 198 160 198 221 q 280 59 201 59 q 379 94 328 59 q 465 187 430 129 q 499 295 499 244 q 320 404 499 406 q 381 483 330 441 q 470 526 432 526 q 583 484 548 526 q 619 369 619 442 q 599 228 619 297 q 535 124 579 160 q 652 216 575 143 q 743 302 729 288 l 741 225 q 616 110 655 138 q 546 62 577 83 q 488 29 514 41 q 427 3 463 17 q 356 -19 391 -11 q 214 -38 277 -38 q 121 -28 151 -38 q 77 2 91 -17 q 52 91 52 35 q 59 202 52 146 q 83 335 65 258 q 111 454 101 413 "},"D":{"x_min":-99.015625,"x_max":1078.375,"ha":1042,"o":"m 40 221 l 33 160 q 51 72 31 99 q 118 45 71 45 q 173 65 144 45 q 219 127 202 85 q 305 402 256 200 l 395 819 q 482 845 404 845 l 546 845 q 518 690 537 795 q 489 520 499 584 q 450 360 478 455 q 401 199 422 264 q 474 113 417 153 q 592 73 531 73 q 713 104 653 73 q 809 181 773 134 q 874 317 846 227 q 903 494 903 406 q 889 644 903 581 q 844 763 875 707 q 768 858 813 818 q 507 937 672 939 q 313 899 408 937 q 159 803 217 862 q 101 687 101 745 q 203 565 101 608 q 197 500 203 534 q 185 455 191 465 q 33 546 84 487 q -16 667 -16 606 q 5 778 -16 729 q 76 873 27 827 q 196 953 126 918 q 595 1029 350 1029 q 774 1001 693 1029 q 911 925 856 972 q 1005 817 966 878 q 1078 570 1078 701 q 1040 329 1078 440 q 936 137 1001 218 q 778 9 870 56 q 581 -38 685 -38 q 333 90 426 -38 q 221 -19 284 6 q 80 -41 158 -45 q -48 13 2 -37 q -99 124 -99 65 q 40 221 -99 221 "},"z":{"x_min":-56.96875,"x_max":619.890625,"ha":500,"o":"m 385 494 l 466 503 q 484 483 484 503 q 483 474 484 476 l 392 283 q 326 144 375 245 q 356 127 345 137 q 367 110 366 116 q 503 228 422 146 q 589 314 584 309 l 619 250 q 413 54 478 107 l 390 36 q 299 -240 376 -126 q 107 -362 221 -354 q -13 -331 29 -362 q -56 -250 -56 -301 q 23 -74 -56 -145 q 261 48 103 -4 q 226 55 256 49 q 165 75 165 67 q 223 221 165 97 q 297 380 281 344 l 263 389 q 177 303 242 365 q 78 206 112 241 l 78 293 l 209 432 q 160 522 160 457 q 195 599 160 562 q 287 637 230 637 q 311 629 300 637 q 322 604 322 621 q 280 523 322 552 q 385 494 309 494 m 305 -2 q 200 -51 248 -33 q 128 -81 152 -68 q 90 -108 104 -93 q 61 -210 60 -141 q 75 -262 61 -242 q 123 -282 90 -282 q 198 -240 155 -282 q 272 -130 240 -198 q 305 -2 303 -61 "},"w":{"x_min":26.453125,"x_max":862.703125,"ha":773,"o":"m 453 -19 q 381 0 411 -19 q 336 52 351 19 q 155 -19 259 -19 q 61 20 96 -19 q 26 118 26 59 q 118 494 26 219 q 225 547 135 547 l 265 547 q 236 457 261 534 q 172 166 172 265 q 188 101 171 127 q 242 75 206 75 q 322 116 278 75 l 322 126 q 347 265 323 184 q 455 423 393 423 q 490 380 490 423 q 465 257 490 337 q 441 166 441 176 q 459 102 441 128 q 505 76 476 76 q 567 118 534 76 q 607 201 600 159 q 613 262 609 215 q 622 358 617 310 q 639 457 628 406 q 725 569 663 569 q 749 525 739 569 q 759 442 759 480 q 712 252 759 370 l 702 227 q 729 202 712 202 q 773 226 745 202 q 862 313 801 250 l 855 222 q 816 185 840 208 q 778 149 792 162 q 719 118 744 118 q 668 155 693 118 q 580 30 636 80 q 453 -19 524 -19 "},"$":{"x_min":-168.203125,"x_max":655.84375,"ha":580,"o":"m 392 965 l 368 963 l 282 591 q 407 493 375 523 q 507 302 506 401 q 345 41 507 139 q 136 -37 254 -20 l 132 -54 q 127 -85 130 -63 q 122 -116 124 -107 q 111 -135 120 -126 q 87 -144 102 -144 q 48 -128 48 -148 q 55 -78 48 -116 l 61 -41 q 31 -40 51 -42 q -25 -28 12 -38 q -94 0 -62 -18 q -147 51 -127 18 q -168 125 -168 83 q -135 194 -168 167 q -55 223 -102 221 l -26 225 q -39 167 -35 185 q -42 133 -42 149 q -38 107 -42 117 q -29 88 -35 97 q -14 71 -23 80 q 6 56 -6 62 q 78 38 31 40 q 177 465 111 196 q 64 562 95 530 q -5 697 -5 635 q 23 815 -5 758 q 101 912 52 872 q 313 1020 201 995 l 324 1066 q 348 1175 339 1151 q 375 1199 358 1199 q 406 1177 400 1184 q 413 1159 413 1169 l 381 1026 q 434 1029 405 1029 q 501 1019 463 1029 q 575 987 539 1009 q 633 926 611 966 q 655 832 655 885 q 522 740 655 818 q 352 649 388 662 l 352 716 q 415 747 362 722 q 533 830 533 803 q 392 965 533 965 m 360 232 q 328 316 360 274 q 238 409 297 359 l 148 40 q 291 94 227 55 q 360 232 360 149 m 297 951 q 193 884 244 934 q 141 767 141 833 q 221 641 141 700 l 297 951 "},"\\":{"x_min":-48.828125,"x_max":630.75,"ha":557,"o":"m 107 959 q 215 746 109 949 q 583 5 537 127 q 608 -41 585 -2 q 630 -101 630 -80 q 615 -123 630 -123 q 505 -51 538 -123 q 494 -24 501 -40 q 483 -1 487 -8 l -44 1053 q -48 1076 -48 1068 q -44 1091 -48 1085 q -34 1098 -40 1098 q 53 1071 27 1098 q 107 959 80 1045 "},"~":{"x_min":-24.421875,"x_max":569.03125,"ha":540,"o":"m 49 805 q 105 722 56 722 q 208 742 145 722 q 338 781 272 762 q 441 801 404 801 q 500 789 478 801 q 534 758 522 776 q 553 716 545 739 q 563 674 561 693 q 569 623 569 635 l 484 611 q 432 698 474 698 q 278 656 379 698 q 94 613 177 613 q 10 657 37 613 q -17 727 -13 694 q -24 791 -24 779 l 49 805 "},"-":{"x_min":-15.59375,"x_max":391.328125,"ha":377,"o":"m 322 416 l 229 417 q 23 405 177 417 q -15 433 -15 405 q 17 491 -15 482 q 126 502 37 495 q 249 510 215 510 q 391 482 391 510 q 369 439 391 461 q 322 416 348 416 "},"Q":{"x_min":41.375,"x_max":1231.65625,"ha":1084,"o":"m 516 -144 q 720 -92 682 -119 l 722 -184 q 616 -215 694 -199 q 494 -236 537 -231 q 419 -318 474 -284 q 284 -351 364 -351 q 147 -317 210 -351 q 95 -268 115 -300 q 75 -196 75 -237 q 126 -125 80 -125 l 387 -143 q 443 -19 406 -120 q 504 146 480 80 q 532 224 528 212 q 560 242 537 235 q 662 251 589 251 l 516 -144 m 286 -226 l 204 -219 q 179 -221 184 -219 q 173 -234 173 -223 q 212 -261 176 -242 q 286 -279 248 -279 q 339 -262 324 -279 q 364 -226 355 -245 l 286 -226 m 971 767 q 1028 664 1007 729 q 1048 536 1048 599 q 1041 441 1048 474 q 1231 513 1134 455 l 1230 441 q 1015 333 1144 362 q 886 143 976 231 q 683 7 795 54 q 458 -38 571 -38 q 124 128 240 -38 q 41 450 41 249 q 147 768 41 618 q 445 994 264 931 q 655 1029 545 1029 q 748 1020 697 1029 l 748 932 q 656 937 716 937 q 517 915 595 937 q 381 851 440 892 q 280 752 322 810 q 196 507 196 635 q 344 169 196 274 q 552 108 431 108 q 759 169 672 108 q 900 332 846 231 l 891 332 q 664 408 765 336 q 584 500 614 443 q 555 637 555 556 q 617 783 555 718 q 798 848 678 848 q 971 767 895 848 m 676 672 q 753 503 672 569 q 946 440 834 436 q 961 547 961 488 q 907 685 953 633 q 791 754 862 737 q 702 730 729 748 q 676 672 676 712 "},"M":{"x_min":-279.421875,"x_max":1243.1875,"ha":1106,"o":"m 433 -12 q 397 27 397 -2 l 412 710 l 402 710 l 78 34 q -4 -77 48 -17 q -126 -156 -58 -137 q -247 -176 -193 -176 q -279 -83 -279 -176 q -218 -17 -279 -42 q -99 31 -146 10 q 33 144 -7 72 q 226 553 88 263 q 412 943 365 843 q 494 1026 440 994 q 607 1058 548 1058 q 615 1053 607 1058 q 580 650 591 873 q 566 358 570 426 l 576 358 q 615 436 588 385 q 901 1001 733 661 l 900 999 q 987 1049 918 1029 q 1096 1070 1057 1069 l 1101 1068 q 982 414 1008 585 q 956 168 956 242 q 983 117 956 95 q 1237 318 1032 117 l 1243 219 q 870 -37 978 -37 q 794 104 794 -37 q 814 330 794 207 q 862 612 843 506 q 890 755 881 718 q 900 801 900 792 q 891 810 900 810 q 881 802 883 810 q 433 -12 463 -18 "},"C":{"x_min":-65.78125,"x_max":830.140625,"ha":720,"o":"m 613 800 q 510 946 588 946 q 366 911 435 944 q 246 835 298 879 q 156 726 193 791 q 80 432 80 594 q 161 177 80 269 q 375 100 243 84 q 594 162 476 105 q 824 326 712 219 l 830 230 q 296 -38 545 -38 q -10 142 87 -38 q -65 380 -65 247 q 39 748 -65 571 q 231 948 110 870 q 526 1029 358 1029 q 699 959 628 1029 q 770 798 770 889 q 739 744 770 759 q 589 663 709 729 q 407 569 421 569 q 373 618 381 569 q 493 704 373 651 q 576 750 538 723 q 613 800 613 776 "},"[":{"x_min":-31.875,"x_max":608.359375,"ha":583,"o":"m 134 -51 l 322 -50 q 340 -75 340 -54 q 298 -122 340 -96 q 4 -128 80 -128 q -14 -134 -8 -134 q -26 -127 -21 -134 q -31 -106 -31 -119 q -30 -90 -31 -94 l 242 1003 q 297 1041 253 1041 l 585 1041 q 602 1031 596 1041 q 608 1008 608 1020 q 598 984 608 996 q 575 969 588 972 l 388 963 q 134 -51 137 -22 "},"L":{"x_min":-99.703125,"x_max":943.40625,"ha":851,"o":"m 219 79 q -26 -19 69 -19 q -60 -10 -40 -19 q -99 48 -99 7 q -70 92 -99 73 q 4 128 -40 111 l 181 209 l 339 771 q 381 838 352 813 q 411 861 396 851 q 444 885 425 872 q 507 929 462 899 q 618 994 553 960 q 714 1029 684 1029 q 872 958 801 1029 q 943 798 943 887 q 913 744 943 759 q 763 663 883 729 q 580 569 594 569 q 554 597 554 569 q 664 695 545 643 q 747 741 709 714 q 786 791 785 767 l 782 810 q 725 912 769 872 q 678 931 704 931 q 603 889 646 927 q 521 803 560 852 q 476 723 482 754 q 318 180 408 393 q 344 171 326 177 q 370 163 362 165 q 440 139 378 161 q 623 91 587 91 q 819 214 683 91 q 925 316 868 257 l 933 221 q 693 16 779 67 q 511 -38 597 -38 q 497 -33 505 -38 q 478 -24 489 -29 q 447 -9 468 -18 q 397 11 425 0 q 219 79 316 44 "},"!":{"x_min":97.671875,"x_max":502.5625,"ha":412,"o":"m 251 257 q 215 250 234 250 q 200 268 200 250 q 201 294 200 286 l 304 878 q 332 1008 319 988 q 356 1029 345 1029 l 480 1029 q 502 992 502 1029 q 417 717 502 956 q 291 368 331 478 q 251 257 252 259 m 267 80 q 231 15 267 50 q 160 -19 196 -19 q 97 33 97 -19 q 125 105 97 70 q 191 140 153 140 q 248 125 229 140 q 267 80 267 110 "}," ":{"x_min":0,"x_max":0,"ha":264},"{":{"x_min":-76.640625,"x_max":442.875,"ha":130,"o":"m -42 216 l -40 244 q -29 333 -39 273 q -18 420 -19 392 q -21 459 -18 448 q -30 475 -24 471 q -42 479 -36 478 q -59 479 -48 479 q -76 482 -69 479 l -59 601 q -16 600 -37 600 q 13 604 5 600 q 26 621 21 609 q 33 643 31 632 q 40 674 35 653 q 57 743 44 695 q 98 854 69 791 q 167 971 126 918 q 389 1080 252 1080 q 442 1076 415 1080 l 428 999 q 395 1004 412 1004 q 316 971 354 1004 q 248 886 277 938 q 168 668 193 785 q 122 562 151 588 q 52 530 95 539 q 102 486 88 509 q 115 434 115 464 q 106 319 115 403 q 96 182 96 235 q 105 85 96 130 q 134 9 113 40 q 183 -21 155 -21 q 225 -13 210 -21 l 217 -78 q 149 -88 184 -88 q 42 -45 86 -88 q -42 216 -42 36 "},"X":{"x_min":-75.28125,"x_max":1072.265625,"ha":989,"o":"m -13 99 l 87 91 q 222 180 133 91 q 437 423 311 269 q 309 712 360 607 q 254 829 259 816 q 245 846 248 841 q 236 858 242 851 q 203 859 227 859 q 150 841 180 859 q 107 815 121 822 q 56 784 93 807 q -34 728 19 760 l -34 822 q 274 1002 230 974 q 344 1029 318 1029 q 419 967 390 1029 q 569 588 435 929 q 662 704 634 670 q 830 923 783 869 q 934 1018 878 976 q 979 1029 952 1029 q 1023 1019 1005 1029 q 1041 990 1041 1009 q 1015 944 1041 970 q 956 878 989 917 q 868 784 923 838 q 770 666 813 730 q 615 468 706 579 l 678 311 q 765 150 733 187 q 833 128 796 113 q 890 168 857 139 q 942 217 923 197 q 1001 276 962 236 q 1070 345 1041 316 l 1072 222 q 917 61 948 91 q 748 -38 813 -38 q 622 41 682 -38 q 490 292 561 121 l 477 321 q 307 123 362 184 q 239 48 252 63 q 199 11 225 33 q 150 -22 173 -10 q 25 -40 95 -46 q -67 0 -48 -40 q -75 47 -75 18 q -59 88 -75 76 q -13 99 -43 99 "},"P":{"x_min":-201.4375,"x_max":925.09375,"ha":782,"o":"m -68 119 l -69 44 q 9 -36 -69 -36 q 119 29 73 -36 q 181 189 162 110 q 229 416 215 329 l 313 824 q 350 853 317 844 q 408 863 383 863 l 467 864 q 435 693 460 811 q 392 503 410 575 l 409 503 q 665 558 577 503 q 752 724 752 632 q 669 874 752 816 q 432 932 585 932 q 260 907 351 932 q 104 838 168 883 q 40 740 40 793 q 70 654 40 687 q 174 604 101 622 q 146 503 164 540 q -47 628 10 545 q -79 734 -79 673 q -30 854 -79 795 q 96 950 17 913 q 472 1029 261 1029 q 857 908 739 1029 q 925 746 925 838 q 892 621 925 682 q 802 510 859 560 q 657 430 745 461 q 469 400 570 400 q 373 408 423 400 q 169 -58 322 63 q 3 -122 90 -122 q -142 -80 -84 -122 q -201 35 -201 -39 q -68 119 -201 119 "},"%":{"x_min":-94.265625,"x_max":641.59375,"ha":507,"o":"m 294 661 q 227 603 268 626 q 141 581 185 581 q 68 601 97 581 q 22 651 38 620 q -10 762 -10 712 q -2 847 -10 813 q 20 914 4 881 q 59 972 36 947 q 189 1029 111 1029 q 339 896 306 1029 q 347 822 347 862 q 333 739 347 782 q 294 661 319 696 m 253 860 q 241 918 253 893 q 201 944 228 944 q 151 921 174 944 q 115 863 128 897 q 90 726 90 793 q 122 659 90 659 q 191 697 160 659 q 238 781 223 735 q 253 860 253 827 m 444 25 q 384 -13 419 1 q 310 -27 349 -27 q 241 -8 271 -27 q 196 42 212 11 q 162 158 162 104 q 174 255 162 212 q 210 337 187 299 q 273 398 233 375 q 359 422 313 422 q 437 403 405 422 q 486 354 469 385 q 512 289 503 322 q 520 219 520 255 q 512 148 520 183 q 486 82 503 113 q 444 25 468 50 m 423 290 q 407 322 419 307 q 370 337 394 337 q 324 314 347 337 q 289 255 301 290 q 264 116 264 183 q 295 50 264 50 q 364 87 333 50 q 412 171 396 125 q 427 245 427 217 q 423 290 427 273 m 430 931 q 472 992 463 980 q 492 1020 480 1005 q 508 1038 503 1034 q 524 1051 514 1043 q 543 1061 535 1059 q 564 1066 551 1063 q 628 1070 585 1070 q 637 1064 633 1070 q 641 1048 641 1057 q 637 1026 641 1040 l 26 26 q 11 0 21 18 q -7 -33 0 -20 q -27 -63 -16 -47 q -72 -95 -51 -95 q -94 -79 -94 -95 q -45 33 -94 -46 q 430 931 246 589 "},"#":{"x_min":-56.296875,"x_max":623.96875,"ha":529,"o":"m 518 347 l 425 348 l 398 348 l 292 26 q 284 0 289 18 q 274 -33 279 -19 q 263 -63 269 -47 q 230 -95 248 -95 q 206 -85 211 -95 q 202 -55 202 -75 q 210 -1 202 -35 q 218 33 218 31 q 303 347 248 118 l 155 343 l 69 26 q 62 0 67 19 q 52 -34 56 -21 q 40 -63 48 -47 q 7 -95 26 -95 q -15 -85 -10 -95 q -20 -50 -20 -75 q 0 52 -20 -25 q 60 339 21 130 q -17 336 40 339 q -56 364 -56 336 q -23 422 -56 411 l 76 429 l 97 547 q 12 544 76 547 q -25 572 -25 544 q -4 627 -25 617 q 37 635 12 635 q 114 637 67 635 q 168 936 166 931 q 177 962 170 942 q 188 991 184 982 q 198 1016 191 1001 q 208 1037 204 1031 q 221 1050 212 1042 q 237 1061 229 1058 q 258 1066 245 1063 q 321 1070 276 1070 q 338 1059 329 1070 q 346 1034 346 1047 l 239 642 q 377 647 369 647 q 456 970 443 928 q 483 1035 470 1011 q 526 1065 497 1059 q 599 1070 555 1070 q 615 1059 607 1070 q 623 1034 623 1047 l 622 1026 l 497 648 q 617 620 617 645 q 595 577 617 600 q 549 555 574 555 l 467 556 l 428 440 l 444 440 q 586 412 586 440 q 565 369 586 392 q 518 347 544 347 m 326 438 q 354 555 352 543 q 214 551 305 555 l 181 438 l 326 438 "},"_":{"x_min":-60.359375,"x_max":485.609375,"ha":448,"o":"m 417 -50 l 324 -48 q -21 -61 229 -48 q -60 -33 -60 -61 q -27 25 -60 15 q 145 35 2 29 q 343 42 288 42 q 485 15 485 42 q 464 -27 485 -4 q 417 -50 442 -50 "},"+":{"x_min":-33.234375,"x_max":482.21875,"ha":440,"o":"m 400 400 l 307 401 l 254 401 l 208 216 q 188 193 205 204 q 146 183 172 183 q 120 205 120 183 q 123 222 120 217 l 165 397 l 0 388 q -33 406 -33 388 q -27 438 -33 425 q -14 458 -22 451 q 13 474 1 472 q 185 489 67 483 l 196 526 q 210 592 200 548 q 225 661 220 637 q 250 679 227 670 q 293 687 273 687 q 307 649 307 687 q 291 545 307 611 l 277 491 q 345 493 299 493 q 482 467 482 493 q 453 424 482 448 q 400 400 425 400 "},")":{"x_min":-44.765625,"x_max":545.96875,"ha":541,"o":"m 127 1005 l 130 1058 q 239 1069 186 1069 q 344 1047 291 1069 q 435 985 398 1024 q 497 889 472 945 q 545 623 545 779 q 465 247 545 428 q 223 -36 374 44 q 44 -82 140 -82 q -44 -71 -3 -82 l -42 -2 q 6 -6 -16 -6 q 130 23 72 -6 q 230 103 188 52 q 305 218 271 153 q 358 355 338 282 q 398 630 398 500 q 326 922 398 817 q 257 983 300 959 q 158 1007 213 1007 q 127 1005 139 1007 "},"'":{"x_min":80.703125,"x_max":213.640625,"ha":240,"o":"m 213 1008 q 200 951 213 988 q 172 870 186 914 q 146 785 158 826 q 130 734 134 744 l 92 734 q 80 891 80 805 q 126 1043 80 1043 q 196 1035 179 1043 q 213 1008 213 1028 "},"}":{"x_min":-167.515625,"x_max":352,"ha":376,"o":"m 316 747 q 304 658 314 718 q 294 555 295 598 q 318 512 293 512 l 334 512 q 352 510 344 512 l 334 389 q 291 392 313 392 q 262 387 269 392 q 249 370 254 382 q 241 348 244 358 q 235 317 239 337 q 227 282 230 296 q -114 -88 128 -88 q -167 -84 -140 -88 l -153 -6 q -120 -12 -137 -12 q -40 20 -79 -12 q 26 105 -2 53 q 106 323 82 212 q 153 429 122 402 q 223 461 178 451 q 173 504 187 482 q 159 557 159 526 q 168 672 159 588 q 178 809 178 756 q 170 907 178 862 q 140 982 162 952 q 91 1012 119 1012 q 49 1005 64 1012 l 57 1069 q 125 1080 90 1080 q 233 1037 189 1080 q 316 775 316 955 l 316 747 "},"a":{"x_min":-2.71875,"x_max":712.8125,"ha":629,"o":"m 101 -19 q 1 94 20 -19 q -2 152 -2 122 q 33 301 -2 226 q 130 436 70 377 q 274 532 190 495 q 445 569 358 569 q 559 547 488 569 q 545 485 558 542 q 520 368 533 427 q 484 171 484 204 q 504 139 484 139 q 712 311 549 139 l 712 222 q 516 48 609 115 q 392 -19 423 -19 q 337 52 340 -19 q 343 117 337 81 q 229 12 291 44 q 101 -19 167 -19 m 141 190 q 208 88 141 88 q 281 123 236 88 q 356 196 325 157 l 429 510 q 288 461 356 510 q 181 337 221 413 q 141 190 141 261 "},"T":{"x_min":-84.78125,"x_max":1077.703125,"ha":729,"o":"m 184 455 q 23 562 76 499 q -29 685 -29 625 q -4 794 -29 745 q 66 885 20 843 q 174 959 112 927 q 478 1029 306 1029 q 677 1004 539 1029 q 867 979 815 979 q 955 989 918 979 q 1028 1014 992 999 q 1077 1033 1064 1030 q 985 899 1052 948 q 827 849 917 849 q 739 863 779 849 q 664 891 700 876 q 613 910 628 905 q 592 801 606 875 q 570 689 577 727 q 546 580 562 652 q 518 465 531 508 q 484 357 505 422 q 443 250 464 291 q 396 159 423 210 q 338 76 368 107 q 270 16 307 45 q 98 -38 200 -38 q -73 64 -28 -38 q -84 116 -84 90 q 59 222 -84 222 q 52 140 52 181 q 68 73 52 99 q 126 44 84 47 q 223 112 176 44 q 305 297 269 179 q 367 530 340 414 q 418 752 395 646 q 451 885 440 857 q 518 938 481 932 l 520 938 q 430 945 472 945 q 284 907 370 944 q 146 813 197 870 q 95 699 95 756 q 204 569 95 616 q 197 502 204 540 q 184 455 190 463 "},"=":{"x_min":-61.71875,"x_max":470.015625,"ha":419,"o":"m 402 416 l 309 417 q 4 405 227 417 q -33 433 -33 405 q 0 491 -33 481 q 127 503 23 496 q 350 510 231 510 q 470 482 470 510 q 448 439 470 461 q 402 416 427 416 m 374 263 l 281 265 q -23 252 199 265 q -61 280 -61 252 q -28 339 -61 328 q 99 350 -4 343 q 322 356 203 356 q 442 328 442 356 q 420 286 442 308 q 374 263 399 263 "},"N":{"x_min":-1.359375,"x_max":1081.765625,"ha":986,"o":"m 908 156 l 1081 322 l 1081 223 q 990 130 1002 139 q 746 -38 813 -38 q 653 186 653 -38 q 714 712 653 412 q 726 759 717 727 q 746 859 746 831 q 727 887 746 887 q 680 871 718 887 q 593 825 642 855 q 507 765 544 795 q 437 697 470 734 q 382 627 404 659 q 339 555 359 595 q 307 485 319 515 q 283 419 295 456 q 258 331 265 360 q 236 223 252 302 q 184 0 220 143 l 44 0 q 69 168 44 63 q 136 427 94 274 q 200 674 179 581 l 248 853 l 31 704 l 11 697 q -1 763 -1 729 q 15 791 -1 779 l 307 975 q 422 1028 389 1028 q 436 1015 436 1028 q 417 903 436 975 q 399 822 399 830 l 388 766 q 785 1018 592 982 q 861 1028 825 1028 q 918 965 918 1028 q 889 807 918 946 q 807 247 805 388 q 852 124 809 106 q 908 156 876 124 "},"2":{"x_min":-74.609375,"x_max":622.609375,"ha":582,"o":"m 253 -1 q 117 -10 212 -1 q -26 -19 21 -19 q -74 12 -74 -19 q -39 64 -74 31 q 42 139 -3 97 l 123 212 q 414 560 338 408 q 460 757 465 664 q 424 891 455 850 q 329 931 393 931 q 199 889 255 931 q 141 801 164 856 q 122 685 118 746 q 188 627 149 645 q 220 585 220 611 q 208 556 217 566 q 182 545 200 545 q 77 606 163 545 q -8 682 -8 666 q 17 829 -8 763 q 88 939 44 895 q 321 1029 183 1029 q 551 946 472 1029 q 622 771 622 872 q 449 398 622 596 q 276 223 354 288 q 137 103 175 128 q 256 124 151 105 q 419 144 360 144 q 520 98 520 144 q 500 24 520 67 q 451 -19 480 -19 q 357 -10 421 -19 q 253 -1 293 -1 "},"j":{"x_min":-301.125,"x_max":385.90625,"ha":300,"o":"m -10 13 l 13 92 q 60 309 29 174 q 100 466 91 443 q 115 500 109 489 q 129 518 121 510 q 143 530 137 525 q 162 538 149 535 q 180 543 174 541 q 203 546 187 545 q 226 547 219 547 q 254 547 226 547 q 241 501 253 543 q 220 430 228 459 q 197 350 211 401 q 172 262 183 300 q 152 183 162 224 q 133 86 132 102 q 227 162 147 92 q 385 313 307 233 l 384 222 q 284 123 322 158 q 107 -10 183 25 q 96 -63 103 -27 q 86 -108 88 -99 q 78 -145 84 -118 q 71 -180 73 -171 q 64 -209 69 -188 q 56 -241 59 -229 q 48 -271 53 -252 q 38 -308 44 -290 q 27 -348 33 -326 q -72 -475 9 -414 q -234 -536 -153 -536 q -271 -522 -257 -536 q -301 -428 -301 -496 q -260 -280 -299 -353 q -181 -159 -221 -207 q -36 -8 -99 -61 l -10 13 m -189 -320 q -206 -370 -202 -349 q -210 -404 -210 -392 q -200 -435 -210 -417 q -168 -453 -189 -453 q -134 -444 -147 -453 q -107 -418 -121 -436 q -89 -386 -93 -400 q -75 -343 -84 -373 q -60 -290 -66 -313 q -46 -233 -53 -268 q -34 -179 -38 -198 q -16 -90 -23 -124 q -189 -320 -159 -248 m 192 539 q 143 588 143 539 q 169 653 143 621 q 229 685 194 685 q 281 671 264 685 q 298 630 298 657 q 266 571 298 602 q 192 539 233 539 "},"Z":{"x_min":-35.265625,"x_max":914.921875,"ha":834,"o":"m 55 143 l 223 218 q 384 444 331 360 l 677 920 q 440 935 560 935 q 230 913 320 935 q 139 868 139 891 q 189 748 147 785 q 135 719 189 731 q 15 805 55 749 q -25 929 -25 861 q 212 1013 -25 984 q 470 1029 341 1029 q 715 1017 599 1029 q 848 1004 830 1005 l 877 938 q 788 790 852 900 q 669 587 725 680 q 530 376 613 493 q 368 176 446 258 q 409 163 375 174 q 465 146 443 153 q 524 129 487 140 q 589 110 562 118 q 647 95 617 103 q 728 86 704 84 q 775 100 752 89 q 914 190 853 137 l 914 113 q 817 50 886 97 q 702 -17 749 3 q 603 -38 655 -38 q 594 -35 600 -38 q 583 -30 589 -33 q 566 -22 577 -27 q 539 -11 554 -17 q 500 3 524 -5 q 447 23 476 12 q 284 79 377 48 q 152 8 219 36 q 38 -19 86 -19 q 4 -10 25 -19 q -35 48 -35 6 q 55 143 -35 103 "},"":{"x_min":149.890625,"x_max":315.375,"ha":481,"o":"m 244 -61 q 315 -112 315 -61 q 271 -261 315 -158 q 226 -366 227 -365 l 187 -352 q 202 -221 197 -287 q 163 -205 176 -221 q 149 -160 149 -190 q 178 -95 149 -130 q 244 -61 206 -61 "},"u":{"x_min":25.09375,"x_max":756.21875,"ha":673,"o":"m 104 -19 q 25 94 25 -19 q 34 169 25 132 q 147 530 75 323 q 257 547 149 547 l 280 547 q 252 458 280 545 q 169 152 169 196 q 215 109 170 109 q 311 143 254 109 q 378 196 368 176 l 451 466 q 492 537 466 524 q 555 547 512 547 l 601 547 q 499 166 515 236 q 495 121 495 131 q 498 107 495 111 q 512 103 501 103 q 756 313 546 103 l 755 221 q 699 168 739 206 q 638 111 659 130 q 581 63 617 92 q 522 18 545 33 q 421 -19 460 -19 q 361 44 362 -19 q 368 107 361 81 q 104 -19 212 -19 "},"1":{"x_min":-26.453125,"x_max":415.078125,"ha":364,"o":"m 398 1029 q 415 1010 415 1029 q 413 984 415 991 l 225 149 q 204 26 215 52 q 179 0 193 0 l 41 0 q 23 31 23 0 q 37 130 23 62 q 69 261 52 198 q 106 400 85 324 q 177 670 127 476 q 228 865 227 863 q 92 767 166 815 q -9 725 18 719 q -26 762 -26 742 q 14 808 -26 782 q 398 1029 362 1029 "},"k":{"x_min":-6.78125,"x_max":697.21875,"ha":614,"o":"m 465 177 l 463 127 q 474 93 461 88 q 482 97 478 93 q 514 128 486 101 q 571 185 541 155 q 697 311 663 276 l 697 222 q 490 23 535 62 q 400 -19 440 -19 q 336 76 336 -19 l 343 197 q 333 228 343 217 q 193 254 309 254 l 189 236 q 98 0 146 40 l -6 0 q 153 632 2 73 l 202 816 q 261 968 234 935 q 304 990 278 988 q 357 991 330 991 q 389 988 383 991 q 300 681 364 894 q 237 465 237 467 l 468 572 q 537 541 512 569 q 562 481 562 514 q 556 430 562 449 q 544 396 551 411 q 521 368 537 382 q 494 346 505 354 q 457 327 482 338 q 391 300 405 305 q 373 293 377 295 q 367 291 370 292 q 446 252 424 287 q 465 177 465 223 m 207 328 l 252 328 q 381 345 314 328 q 441 422 441 373 q 387 471 440 471 q 327 453 363 471 q 255 404 290 436 q 207 328 219 373 "},"€":{"x_min":16.953125,"x_max":925.09375,"ha":931,"o":"m 569 84 q 925 236 735 84 l 925 161 q 489 -38 689 -38 q 339 -7 406 -38 q 229 76 271 23 q 128 330 142 183 l 56 327 q 19 352 19 327 q 51 404 19 395 q 126 408 70 404 q 133 480 126 415 l 54 476 q 16 501 16 476 q 33 548 16 539 q 94 558 50 556 q 149 560 137 560 q 269 826 185 711 q 649 1029 418 1029 q 842 959 763 1029 q 921 798 921 889 q 895 747 921 758 q 653 638 716 661 q 629 666 629 638 q 700 720 629 687 q 772 779 772 752 q 629 961 729 961 q 469 900 542 956 q 284 567 325 789 q 364 568 311 568 q 499 543 499 568 q 479 505 499 524 q 434 486 459 486 l 345 487 q 273 486 309 487 q 271 416 271 473 q 366 419 337 419 q 502 394 502 419 q 482 357 502 377 q 437 337 461 337 l 348 339 q 282 337 315 339 q 384 150 307 216 q 569 84 461 84 "},"<":{"x_min":-70.53125,"x_max":483.578125,"ha":269,"o":"m 162 269 q 338 35 250 131 q 410 -76 410 -45 q 392 -104 410 -94 q 346 -113 374 -113 q 294 -96 318 -113 q 240 -52 270 -80 q 183 6 210 -25 q 134 67 155 39 q 87 135 113 94 q 45 201 61 175 q 2 272 29 227 q -47 355 -24 318 q -70 409 -70 391 q -67 437 -70 428 q -55 457 -64 446 q -39 477 -47 468 q -14 504 -31 486 q 33 558 2 522 q 117 653 64 593 q 196 743 170 713 q 251 805 221 773 q 293 851 280 838 q 322 881 306 865 q 371 917 345 902 q 422 931 396 931 q 465 922 447 931 q 483 896 483 912 q 462 862 483 880 q 411 826 441 844 q 337 771 381 807 q 259 690 294 734 q 44 440 181 589 l 162 269 "},"t":{"x_min":23.734375,"x_max":470.6875,"ha":370,"o":"m 103 491 q 87 491 93 491 q 74 491 80 491 q 65 492 68 491 q 57 494 61 493 q 50 497 52 495 q 44 502 47 499 q 41 523 40 507 q 46 546 43 539 q 70 556 48 553 l 127 561 q 169 686 156 657 q 194 737 182 714 q 217 773 206 760 q 243 801 228 786 q 274 824 258 816 q 354 841 313 841 l 356 838 q 339 786 356 836 q 263 561 280 619 l 470 571 l 455 546 q 247 497 433 497 q 229 430 246 497 q 168 158 168 205 q 179 113 168 118 q 202 108 190 108 q 460 318 238 108 l 459 229 q 396 170 436 208 q 331 110 355 132 q 273 61 308 89 q 214 17 238 32 q 104 -19 151 -19 q 23 92 23 -19 q 43 238 23 154 q 75 375 62 322 q 103 491 89 428 "},"W":{"x_min":23.0625,"x_max":1651.46875,"ha":1420,"o":"m 1338 713 l 1341 734 q 1315 878 1344 822 q 1275 908 1297 908 q 1239 856 1237 908 q 1277 759 1242 805 q 1338 713 1311 714 m 1431 719 l 1431 706 l 1431 702 q 1589 766 1506 704 q 1650 812 1619 787 l 1651 722 q 1427 622 1534 641 q 1313 282 1417 463 q 1060 6 1199 86 q 908 -38 983 -38 q 759 24 815 -38 q 728 73 737 52 q 716 114 720 94 q 573 -5 652 32 q 427 -40 495 -42 q 317 -7 360 -37 q 248 69 273 22 q 199 283 199 164 q 241 542 199 402 q 355 780 282 682 q 380 819 370 803 q 389 842 389 835 q 387 849 389 849 q 379 845 385 849 l 324 809 q 265 772 314 803 q 23 626 134 691 l 23 711 q 240 842 99 754 q 573 1037 543 1037 q 591 1023 591 1037 q 522 832 591 996 q 391 375 391 518 q 536 151 391 123 q 622 181 571 151 q 695 248 672 211 q 692 319 689 276 q 700 425 694 362 q 721 555 706 487 q 759 675 737 622 q 818 761 781 727 q 898 796 854 796 q 954 718 954 796 q 870 389 954 619 q 839 305 852 337 l 826 271 q 849 203 826 232 q 987 147 895 147 q 1117 202 1054 147 q 1226 327 1180 258 q 1302 479 1273 396 q 1332 625 1332 561 q 1264 657 1302 631 q 1204 706 1226 682 q 1152 844 1152 763 q 1184 965 1152 908 q 1298 1029 1221 1029 q 1431 719 1429 1029 "},"v":{"x_min":37.296875,"x_max":615.140625,"ha":528,"o":"m 427 189 q 444 156 443 170 q 484 178 462 156 q 521 214 506 199 q 565 259 536 229 q 615 309 594 289 l 615 226 q 476 96 504 111 q 433 80 448 80 q 381 143 411 80 q 297 21 326 45 q 227 -13 259 -8 q 166 -19 196 -19 q 94 36 125 -19 q 37 368 37 143 q 46 514 37 453 q 152 547 50 547 l 206 547 q 185 331 185 435 q 204 156 185 228 q 254 86 223 84 q 329 179 280 86 q 354 222 355 222 q 354 254 354 223 q 360 340 354 285 q 379 448 366 395 q 415 535 392 501 q 466 569 438 569 q 501 503 501 569 q 472 333 501 437 q 427 189 444 229 "},">":{"x_min":-45.4375,"x_max":557.5,"ha":528,"o":"m 286 269 l 446 440 q 307 661 345 590 q 236 768 269 732 q 179 822 204 804 q 117 888 117 866 q 138 921 117 910 q 182 931 160 931 q 217 929 204 931 q 243 916 229 926 q 268 894 257 906 q 299 854 280 882 q 336 797 318 826 q 373 739 354 769 q 406 683 392 708 q 462 593 419 657 q 531 487 504 529 q 557 430 557 445 q 505 341 557 400 q 439 262 489 322 q 367 177 389 202 q 300 102 345 152 q 222 23 254 52 q 56 -103 136 -53 q 7 -113 37 -113 q -45 -84 -45 -113 q -7 -25 -45 -62 q 118 95 29 12 q 286 269 207 178 "},"s":{"x_min":-58.328125,"x_max":526.296875,"ha":437,"o":"m 230 5 q 180 -12 207 -4 q 125 -19 152 -19 q 67 -14 97 -19 q 8 3 37 -8 q -58 96 -58 30 q -38 157 -58 123 q 4 217 -18 191 q 59 276 27 242 q 103 323 91 309 q 84 422 84 368 q 133 553 84 501 q 279 605 182 605 q 322 581 322 605 q 289 511 325 534 q 211 487 252 487 q 286 367 231 423 q 325 326 306 345 q 369 248 369 281 q 331 142 369 198 l 526 310 l 523 223 q 483 188 515 217 q 436 147 451 160 q 388 108 421 134 q 336 68 356 82 q 284 34 316 54 q 230 5 253 14 m 135 261 q 94 223 130 255 q 20 123 19 159 q 53 67 21 87 q 130 48 84 48 q 202 60 175 48 q 229 95 229 72 q 223 137 229 118 q 203 176 217 155 q 180 210 190 197 q 156 238 170 223 q 135 261 141 253 "},"B":{"x_min":-107.84375,"x_max":952.21875,"ha":917,"o":"m 25 205 l 24 144 q 43 73 20 94 q 95 48 61 48 q 159 63 130 48 q 204 105 189 78 q 234 168 219 132 q 261 252 249 205 q 286 366 277 315 q 297 423 296 417 l 387 864 q 543 902 394 902 q 480 602 505 691 q 455 480 480 600 q 396 204 407 250 q 473 113 415 150 q 604 75 531 77 q 718 115 678 73 q 758 236 758 158 q 714 394 758 314 q 600 512 670 474 l 603 602 q 753 644 695 607 q 810 750 810 682 q 489 939 806 931 q 278 892 384 939 q 109 769 157 840 q 82 680 82 727 q 192 565 82 604 q 177 453 192 505 q 40 529 101 476 q -27 668 -27 588 q 21 816 -27 748 q 148 931 69 885 q 545 1029 318 1029 q 853 937 747 1029 q 931 763 931 872 q 914 671 931 710 q 860 602 898 632 q 735 552 811 560 q 893 402 834 493 q 952 234 952 311 q 925 107 952 158 q 853 25 899 56 q 641 -38 761 -38 q 452 -3 520 -38 q 333 96 383 32 q 216 -7 276 23 q 86 -38 157 -38 q -41 -1 19 -38 q -89 47 -70 16 q -107 116 -107 78 q 25 205 -107 205 "},"?":{"x_min":25.09375,"x_max":658.546875,"ha":678,"o":"m 226 287 q 174 315 174 287 q 245 476 174 396 q 358 583 287 522 q 459 676 428 644 q 530 817 530 750 q 500 897 530 863 q 340 966 443 966 q 258 954 283 966 q 220 933 233 942 q 196 910 206 925 q 177 884 185 895 q 163 854 170 873 q 152 825 156 835 q 143 793 149 814 q 134 765 137 773 l 105 766 q 25 832 25 769 q 31 866 25 851 q 101 958 52 919 q 312 1029 193 1029 q 550 969 448 1029 q 629 893 599 940 q 658 791 658 846 q 638 691 658 736 q 585 613 617 645 q 512 552 552 581 q 432 499 472 524 q 356 451 391 474 q 271 337 279 397 q 252 300 265 312 q 226 287 239 287 m 308 80 q 273 15 308 50 q 202 -19 238 -19 q 139 33 139 -19 q 166 105 139 70 q 232 140 194 140 q 289 125 271 140 q 308 80 308 110 "},"H":{"x_min":-42.046875,"x_max":1471.75,"ha":1190,"o":"m 173 555 q 45 626 92 586 q -42 779 -42 698 q 120 991 -42 922 q 290 1028 207 1028 q 498 1003 374 1028 q 670 979 622 979 q 767 993 717 979 q 838 1009 816 1008 q 811 929 832 967 q 759 872 790 891 q 708 788 722 817 q 688 748 694 759 q 673 714 682 737 q 660 683 664 691 q 647 648 657 674 q 636 615 638 621 q 611 545 617 569 q 799 558 695 554 q 940 818 853 702 q 1152 1000 1038 949 q 1263 1028 1214 1028 q 1355 1015 1311 1028 q 1435 974 1398 1003 q 1471 914 1471 945 q 1425 839 1471 884 q 1353 794 1378 795 l 1348 808 q 1245 914 1317 914 q 1007 747 1121 914 q 906 562 952 666 l 956 562 q 1122 553 1113 562 q 1130 530 1130 545 q 1109 493 1130 516 q 1062 470 1087 470 q 878 466 968 470 q 849 266 849 366 q 877 113 849 166 q 947 69 905 61 q 1053 113 988 77 q 1296 316 1162 174 l 1306 222 q 1090 36 1206 111 q 883 -37 973 -37 q 780 19 819 -37 q 742 206 742 75 q 773 461 742 336 q 587 445 693 455 q 536 261 548 297 q 384 14 478 84 q 215 -37 313 -37 q 113 -18 158 -37 q 43 26 67 0 q -7 132 -7 82 q 94 210 -7 200 q 152 213 119 213 l 152 173 q 187 57 155 83 q 227 45 202 45 q 276 57 252 45 q 316 87 299 70 q 348 132 333 103 q 375 194 364 161 q 396 263 386 227 q 421 374 413 330 q 431 427 429 418 l 286 406 q 248 434 248 406 q 267 485 248 472 q 282 493 273 489 q 453 524 353 510 q 509 712 480 653 q 558 805 537 772 q 622 861 579 838 q 494 882 585 864 q 357 900 403 900 q 269 894 311 900 q 178 876 227 889 q 96 836 129 863 q 63 773 63 809 q 193 647 63 702 q 173 555 193 581 "},"c":{"x_min":-2.71875,"x_max":558.171875,"ha":472,"o":"m 153 -19 q 36 29 75 -19 q -2 150 -2 78 q 23 294 -2 222 q 94 428 50 366 q 205 529 139 489 q 344 569 271 569 q 469 523 440 569 q 479 481 479 507 q 454 437 479 456 q 389 417 428 417 q 350 461 368 417 q 329 483 345 472 q 294 494 314 494 q 218 454 251 492 q 165 352 184 415 q 145 229 145 289 q 165 136 145 169 q 231 101 185 103 q 556 305 349 101 l 558 223 q 255 0 375 45 q 153 -19 202 -19 "},"&":{"x_min":-40.6875,"x_max":973.25,"ha":813,"o":"m 461 -356 q 453 -334 453 -345 q 470 -308 453 -323 q 511 -273 487 -293 q 560 -227 535 -253 q 618 -70 618 -167 q 588 46 618 -19 q 560 104 579 66 q 394 13 472 46 q 241 -19 316 -19 q 103 7 166 -19 q 0 89 41 34 q -40 216 -40 144 q 11 378 -40 308 q 84 459 51 432 q 134 500 116 486 q 185 534 152 514 q 270 587 235 566 q 316 613 306 607 q 296 734 296 687 q 346 879 296 810 q 472 989 396 948 q 621 1029 547 1029 q 784 982 708 1029 q 843 923 820 960 q 866 841 866 886 q 792 770 866 808 q 685 720 740 743 q 621 694 630 698 q 598 746 607 710 q 632 763 604 750 q 679 785 659 775 q 716 811 699 795 q 734 843 734 827 q 699 912 738 879 q 616 946 659 946 q 544 931 572 946 q 501 890 516 916 q 471 784 471 839 q 482 682 471 728 q 507 600 493 637 q 548 513 522 563 q 593 434 575 463 q 640 358 611 404 q 681 291 669 311 q 782 385 732 324 q 864 505 832 446 q 887 584 872 520 q 917 659 902 648 l 944 661 q 947 661 946 661 q 973 632 973 661 q 935 493 973 576 q 838 333 897 409 q 722 222 779 257 q 771 126 751 180 q 792 27 792 71 q 746 -142 792 -52 q 622 -294 701 -231 q 461 -356 544 -356 m 520 173 l 333 535 q 161 376 194 453 q 146 305 146 343 q 209 166 143 233 q 354 110 275 98 q 433 125 396 110 q 520 173 470 141 "},"I":{"x_min":-30.515625,"x_max":779.28125,"ha":579,"o":"m 102 205 l 101 144 q 120 65 101 92 q 177 40 138 40 q 372 409 303 27 q 373 414 373 413 q 374 419 373 416 q 375 423 374 421 l 384 476 q 118 561 199 489 q 74 647 74 601 q 179 834 74 727 q 360 954 248 904 q 628 1007 478 1007 q 707 1021 658 1007 q 779 1037 756 1036 q 744 945 771 986 q 676 889 718 903 q 545 537 591 743 l 523 438 q 448 165 484 242 q 343 19 398 59 q 164 -38 264 -38 q 36 -1 96 -38 q -11 47 6 16 q -30 116 -30 78 q 102 205 -30 205 m 185 644 q 408 571 185 583 q 482 762 438 685 q 581 885 526 840 q 446 862 520 883 q 326 811 372 841 q 246 746 280 781 q 185 644 185 682 "},"G":{"x_min":-219.0625,"x_max":939.34375,"ha":818,"o":"m 364 -316 q 273 -296 319 -316 q 195 -237 227 -276 q 162 -157 162 -197 q 229 -55 162 -73 l 532 42 q 561 181 556 134 l 567 219 q 417 101 493 134 q 236 76 341 68 q -5 290 74 79 l -86 243 q -138 213 -124 221 q -164 199 -151 205 q -194 186 -187 186 q -210 207 -202 186 q -219 247 -219 227 q -204 273 -219 267 q -142 307 -190 282 q -23 379 -25 369 q 24 625 -23 506 q 151 833 71 744 q 346 975 231 922 q 588 1029 461 1029 q 687 1009 639 1029 q 767 956 735 988 q 839 805 839 886 q 816 715 845 733 q 789 702 804 708 q 772 695 775 696 l 729 675 l 166 381 q 232 258 179 318 q 357 205 285 198 q 590 330 463 205 q 600 369 593 337 q 611 421 608 402 l 746 421 l 671 95 q 939 313 758 136 l 933 223 q 781 86 877 163 q 649 -10 685 9 q 539 -237 613 -158 q 364 -316 465 -316 m 512 -51 q 432 -82 478 -70 q 356 -102 386 -94 q 304 -124 326 -110 q 281 -172 281 -137 q 309 -234 281 -207 q 373 -261 337 -261 q 433 -231 408 -261 q 473 -160 457 -202 q 512 -51 498 -101 m 647 709 q 695 766 695 730 q 657 884 695 838 q 561 941 619 929 q 432 925 489 946 q 321 855 376 904 q 228 741 267 807 q 149 459 149 608 l 432 601 q 517 644 469 619 q 647 709 621 698 "},"`":{"x_min":462.546875,"x_max":819.296875,"ha":1157,"o":"m 534 734 l 474 758 q 462 779 462 761 q 486 822 462 798 q 534 847 511 847 q 673 786 585 844 q 819 674 760 729 l 804 637 q 534 734 609 705 "},"(":{"x_min":-25.09375,"x_max":565.640625,"ha":448,"o":"m 393 -15 l 390 -67 q 282 -79 336 -79 q 175 -56 228 -79 q 85 5 122 -34 q 23 101 48 44 q -25 366 -25 210 q 55 746 -25 569 q 299 1025 147 947 q 484 1069 385 1069 q 565 1062 519 1069 l 562 992 q 514 996 537 996 q 390 967 448 996 q 290 886 332 937 q 215 771 248 836 q 162 634 182 707 q 122 359 122 489 q 213 44 122 148 q 362 -16 267 -16 q 393 -15 381 -16 "},"U":{"x_min":-149.203125,"x_max":1127.203125,"ha":1006,"o":"m 432 1023 q 396 935 432 1015 q 318 754 360 854 q 239 527 275 654 q 203 309 203 400 q 377 107 203 99 q 557 157 478 106 q 697 283 637 208 q 799 446 757 358 q 850 628 841 535 q 780 658 817 632 q 720 708 742 684 q 668 845 668 765 q 701 967 668 910 q 814 1030 737 1030 q 870 1010 846 1030 q 908 956 895 989 q 930 885 921 924 q 941 809 940 846 q 945 745 942 773 q 947 709 948 718 q 946 698 946 699 q 1074 752 1004 708 q 1127 791 1102 769 l 1125 710 q 943 623 1028 638 q 799 244 916 413 q 503 -2 675 65 q 327 -38 412 -38 q 188 -15 242 -38 q 103 48 135 6 q 42 276 42 132 q 102 591 42 419 q 230 852 163 763 q 227 855 230 855 q 219 851 225 855 l 155 809 q 95 772 143 802 q -149 622 -36 689 l -138 716 q 78 848 -63 760 q 308 986 221 935 q 414 1037 395 1037 q 432 1023 432 1037 m 857 701 l 855 725 q 837 850 855 792 q 786 908 819 908 q 746 861 749 908 q 768 772 742 815 q 857 701 793 730 "},"F":{"x_min":-31.875,"x_max":1003.765625,"ha":871,"o":"m 565 910 l 535 911 q 404 889 480 909 q 272 839 328 870 q 182 769 217 808 q 148 693 148 730 q 257 562 148 610 q 250 495 257 533 q 237 448 243 457 q 76 556 129 493 q 23 689 23 619 q 160 909 23 815 q 531 1022 298 1002 q 744 1029 638 1029 q 912 1028 850 1029 q 1003 1028 973 1028 l 908 885 q 763 894 844 885 q 651 905 681 903 q 613 701 636 830 q 584 547 590 571 q 702 554 642 554 q 843 550 763 554 q 868 522 868 550 q 846 467 868 494 q 799 440 825 440 q 563 433 640 440 q 452 75 514 193 q 332 -70 398 -25 q 151 -122 255 -122 q -20 -18 24 -122 q -31 33 -31 7 q 112 139 -31 139 q 105 49 105 98 q 121 -26 105 0 q 175 -54 137 -52 q 246 -17 213 -55 q 307 91 278 20 q 402 406 355 212 l 344 389 q 332 389 341 389 q 314 396 323 389 q 305 421 305 404 q 311 468 305 438 q 347 498 320 486 q 425 526 374 510 q 443 585 436 550 q 457 647 451 620 q 467 689 463 673 q 477 725 472 704 q 486 759 482 746 q 495 787 490 773 q 512 828 504 815 q 565 910 523 883 "},"r":{"x_min":80.703125,"x_max":529.015625,"ha":447,"o":"m 337 500 l 415 503 q 434 494 434 503 q 387 387 434 484 q 281 129 280 168 q 281 124 281 128 q 281 117 280 120 q 282 111 281 115 q 284 105 282 107 q 297 104 288 104 q 405 184 315 104 q 529 309 495 265 l 529 222 q 202 -19 286 -19 q 158 7 172 -19 q 143 59 143 33 q 153 119 143 85 q 180 196 163 152 q 212 274 198 239 q 245 347 227 309 q 266 391 263 384 q 176 305 227 352 q 80 212 125 258 l 80 295 l 215 435 q 111 502 135 459 q 105 518 105 511 q 141 601 105 565 q 237 637 177 637 q 267 601 267 637 q 257 558 267 580 q 230 528 247 537 q 337 500 261 500 "},":":{"x_min":52.90625,"x_max":222.453125,"ha":286,"o":"m 222 594 q 187 529 222 564 q 115 494 151 494 q 52 547 52 494 q 80 619 52 583 q 146 654 108 654 q 203 639 185 654 q 222 594 222 624 m 222 80 q 187 15 222 50 q 115 -19 151 -19 q 52 33 52 -19 q 80 105 52 70 q 146 140 108 140 q 203 125 185 140 q 222 80 222 110 "},"x":{"x_min":-19.671875,"x_max":697.21875,"ha":612,"o":"m 116 90 l 242 241 l 144 430 q 125 447 135 447 q 68 408 114 447 q -1 343 22 369 l -19 387 q 100 511 34 454 q 206 568 166 568 q 262 540 246 568 q 277 508 265 535 q 345 365 315 427 l 440 479 q 565 569 507 569 q 596 557 584 569 q 608 529 608 544 q 590 501 608 513 q 547 473 573 489 q 497 426 522 457 q 383 290 473 394 q 480 128 453 153 q 484 127 482 127 q 573 195 508 135 q 697 318 638 255 l 697 222 q 624 152 666 193 q 555 84 582 111 q 499 32 528 58 q 414 -19 440 -19 q 372 1 388 -19 q 331 69 356 23 l 280 168 q 185 52 245 126 q 61 -37 115 -37 q 29 -25 41 -37 q 18 2 18 -12 q 35 29 18 16 q 78 57 52 41 q 116 90 103 74 "},"*":{"x_min":-51.546875,"x_max":493.0625,"ha":369,"o":"m 242 891 q 294 855 294 891 q 236 632 294 807 q 305 675 259 644 q 438 749 416 749 q 476 720 460 749 q 493 676 493 691 q 478 650 493 660 q 437 633 464 640 q 381 620 409 626 q 249 592 282 600 q 314 529 269 569 q 385 459 359 489 q 412 412 412 430 q 388 373 412 394 q 350 352 365 352 q 313 380 335 352 q 269 447 291 407 q 209 569 226 529 q 139 434 186 515 q 67 354 91 354 q 29 374 50 354 q 8 413 8 394 q 33 461 8 432 q 105 532 58 490 q 170 594 151 574 q 12 634 44 623 q -51 681 -51 656 q -36 729 -51 700 q -7 758 -21 758 q 37 741 6 758 q 98 704 68 724 q 189 641 184 645 l 191 670 l 184 816 q 192 872 184 853 q 216 891 200 891 l 242 891 "},"V":{"x_min":-48.15625,"x_max":1197.734375,"ha":954,"o":"m 168 848 q 398 986 311 935 q 503 1037 485 1037 q 522 1023 522 1037 q 482 904 522 1037 q 419 678 442 770 q 362 311 362 459 q 467 123 362 123 q 559 158 510 123 q 654 247 609 192 q 741 369 699 302 q 866 625 824 499 q 754 682 818 632 q 700 750 722 708 q 678 834 678 793 q 686 906 678 875 q 710 965 694 937 q 824 1029 747 1029 q 961 693 961 1029 q 1128 755 1034 703 q 1197 800 1165 775 l 1197 722 q 952 622 1075 642 q 855 343 925 492 q 673 78 783 189 q 552 -6 619 25 q 417 -38 485 -38 q 299 -11 348 -38 q 223 65 250 16 q 170 298 170 159 q 206 575 170 436 q 286 780 242 714 q 318 843 308 826 q 328 864 328 860 q 327 868 328 868 q 319 862 325 868 l 263 825 q 204 788 252 818 q -40 638 56 697 l -48 716 q 168 848 26 760 m 873 697 l 874 723 q 840 878 874 820 q 800 908 822 908 q 763 851 763 908 q 795 751 763 794 q 873 697 827 707 "},"h":{"x_min":6.78125,"x_max":683.65625,"ha":598,"o":"m 404 988 l 244 408 q 361 526 288 478 q 516 569 434 573 q 583 490 583 569 q 539 334 583 461 q 495 166 495 207 q 507 145 495 145 q 586 216 516 145 q 682 309 655 286 l 683 225 q 404 -19 470 -19 q 360 31 360 -19 q 363 57 360 39 q 385 141 366 76 q 437 400 440 324 q 398 438 437 438 q 274 354 339 438 q 186 181 209 269 q 148 55 162 92 q 112 0 134 18 l 6 0 q 166 632 18 84 l 216 816 q 276 968 248 936 q 318 989 292 987 q 371 991 345 991 q 404 988 397 991 "},"0":{"x_min":-46.125,"x_max":664.65625,"ha":649,"o":"m -46 370 q 28 713 -46 532 q 174 935 82 845 q 392 1029 271 1029 q 618 890 551 1029 q 664 662 664 796 q 633 423 664 535 q 561 237 601 310 q 471 105 522 163 q 348 14 419 48 q 211 -19 278 -19 q 103 4 144 -19 q -8 148 29 45 q -46 370 -46 252 m 535 845 q 503 885 524 870 q 456 900 482 900 q 408 891 431 900 q 334 845 377 878 q 140 578 208 743 q 71 259 71 413 q 71 225 71 242 q 159 96 78 96 q 269 131 215 96 q 368 220 324 165 q 449 345 412 276 q 548 626 520 480 q 558 708 558 681 q 557 752 558 734 q 551 795 556 770 q 535 845 546 819 "},".":{"x_min":52.90625,"x_max":222.453125,"ha":286,"o":"m 222 80 q 187 15 222 50 q 115 -19 151 -19 q 52 33 52 -19 q 80 105 52 70 q 146 140 108 140 q 203 125 185 140 q 222 80 222 110 "},"@":{"x_min":-37.984375,"x_max":959.6875,"ha":918,"o":"m 881 628 q 938 507 917 579 q 959 362 959 436 q 942 228 959 288 q 893 116 925 168 q 809 32 861 65 q 689 -4 758 0 q 577 24 621 -9 q 534 119 534 59 q 450 11 514 54 q 316 -25 385 -30 q 206 21 247 -21 q 164 145 164 64 q 201 301 164 226 q 298 436 238 377 q 441 532 358 495 q 613 569 525 569 q 727 547 655 569 q 691 375 725 535 q 652 189 657 216 q 647 136 647 162 q 701 58 647 58 q 811 139 754 58 q 872 347 872 225 q 680 670 872 600 q 550 690 625 690 q 386 656 475 690 q 226 563 298 621 q 108 419 153 505 q 62 238 62 333 q 165 -31 62 66 q 438 -128 267 -128 q 799 -51 609 -128 l 840 -134 q 453 -212 671 -212 q 174 -147 296 -212 q -10 60 40 -76 q -37 227 -37 134 q -2 406 -37 320 q 93 558 32 493 q 231 672 153 623 q 566 772 387 772 q 881 628 774 772 m 599 518 q 457 465 526 518 q 349 337 389 413 q 309 196 309 261 q 329 99 309 130 q 384 67 350 67 q 455 99 418 67 q 522 184 493 130 l 599 518 "},"f":{"x_min":-50.1875,"x_max":503.921875,"ha":307,"o":"m 365 893 q 307 846 334 893 q 264 735 280 793 q 239 644 248 677 q 219 560 230 611 q 197 445 198 453 q 195 433 196 438 q 193 425 194 429 q 237 500 207 447 q 291 591 267 552 q 345 683 316 630 q 406 838 401 784 q 365 893 412 893 m 389 311 l 389 222 q 207 88 265 88 q 134 130 150 88 q 102 -43 134 120 q 63 -227 69 -206 l -50 -227 q 44 272 -23 -27 q 177 807 112 571 q 277 933 196 872 q 440 994 359 994 q 503 924 498 994 q 503 898 503 914 q 467 728 503 817 q 379 565 431 639 q 276 428 328 492 q 193 327 225 365 q 162 262 162 289 q 183 208 162 236 q 227 180 204 180 q 306 228 251 180 q 389 311 360 276 "},";":{"x_min":76.640625,"x_max":279.421875,"ha":328,"o":"m 76 40 q 104 105 76 70 q 170 140 132 140 q 225 120 208 140 q 241 72 241 99 q 232 20 241 45 q 205 -37 223 -5 q 176 -92 188 -70 q 124 -179 131 -172 l 86 -165 q 128 -19 112 -92 q 89 -4 102 -19 q 76 40 76 10 m 279 594 q 244 529 279 564 q 172 494 208 494 q 109 547 109 494 q 137 619 109 583 q 203 654 165 654 q 260 639 242 654 q 279 594 279 624 "},"i":{"x_min":19.671875,"x_max":400.15625,"ha":318,"o":"m 156 134 q 181 106 158 106 q 275 184 196 106 q 400 311 354 261 l 400 221 q 221 51 266 89 q 79 -19 138 -16 q 34 7 49 -19 q 19 75 19 33 q 57 273 19 118 q 108 461 95 428 q 128 506 120 493 q 149 526 137 519 q 170 538 161 534 q 198 545 179 543 q 263 547 225 547 q 156 134 156 204 m 202 531 q 153 579 153 531 q 179 645 153 613 q 239 676 204 676 q 290 663 274 676 q 307 622 307 649 q 275 562 307 594 q 202 531 243 531 "},"6":{"x_min":-52.21875,"x_max":593.4375,"ha":536,"o":"m 64 6 q -9 75 16 31 q -43 165 -35 120 q -52 270 -52 210 q -26 405 -52 329 q 26 533 0 480 q 99 652 54 586 q 240 837 161 741 q 353 962 318 933 q 423 991 388 991 l 529 991 q 276 702 360 817 q 143 484 176 564 q 75 200 75 323 q 82 130 75 147 q 98 101 90 113 q 119 82 107 89 q 188 64 147 64 q 275 100 230 64 q 355 188 320 135 q 409 290 389 242 q 435 375 430 339 q 440 430 440 410 q 435 475 440 450 q 408 516 430 499 q 358 541 387 533 q 228 551 320 551 q 272 602 247 588 q 358 624 297 617 q 538 569 484 618 q 593 426 593 519 q 554 252 593 335 q 460 111 515 170 q 330 16 405 52 q 183 -19 255 -19 q 64 6 111 -19 "},"A":{"x_min":-25.09375,"x_max":1084.484375,"ha":864,"o":"m 819 881 q 837 859 837 881 q 835 848 837 851 q 687 223 771 669 q 693 143 674 160 q 709 138 699 138 q 773 161 746 138 q 952 332 818 196 l 946 223 q 892 166 926 202 q 840 110 859 130 q 794 63 822 90 q 746 20 766 35 q 703 -10 727 5 q 621 -38 659 -38 q 564 -24 583 -38 q 522 78 524 2 q 527 120 522 97 q 366 8 454 54 q 206 -38 278 -38 q 30 26 86 -38 q -25 222 -25 92 q 9 415 -25 316 q 104 602 44 514 q 246 770 164 691 q 419 906 328 849 q 811 1029 617 1029 q 950 1007 879 1029 q 1084 895 1084 967 q 1041 828 1084 867 q 967 780 998 788 q 769 939 927 939 q 497 850 648 939 q 255 612 354 755 q 149 314 149 455 q 200 158 149 206 q 341 110 250 110 q 463 160 401 110 q 541 274 526 210 q 608 554 557 337 q 675 826 658 771 q 819 881 691 881 "},"n":{"x_min":-16.953125,"x_max":649.734375,"ha":568,"o":"m 649 307 l 649 219 q 458 45 541 109 q 347 -19 375 -19 q 297 37 297 -19 q 322 173 297 94 q 370 310 347 252 q 392 391 392 369 q 384 423 392 413 q 366 433 377 433 q 290 385 335 436 q 208 259 246 335 q 112 0 135 101 l -16 0 q 24 242 -16 73 q 96 493 65 412 q 133 536 109 525 q 198 547 158 547 l 244 547 q 179 334 199 394 q 299 486 223 408 q 394 550 345 531 q 487 569 443 569 q 554 490 554 569 q 505 316 554 452 q 457 165 457 180 q 466 151 457 151 q 488 160 474 151 q 569 232 502 169 q 649 307 635 296 "},"O":{"x_min":-32.5625,"x_max":1156.375,"ha":1021,"o":"m 899 765 q 954 663 935 727 q 974 536 974 599 q 966 432 974 474 q 1153 520 1062 450 l 1156 441 q 938 339 1059 362 q 812 143 902 231 q 609 7 721 54 q 384 -38 497 -38 q 50 128 166 -38 q -32 450 -32 249 q 74 768 -32 618 q 371 994 190 931 q 581 1029 471 1029 q 674 1020 623 1029 l 674 927 q 582 932 642 932 q 443 905 521 932 q 313 839 366 877 q 219 744 261 802 q 134 499 134 627 q 270 169 122 274 q 471 110 357 108 q 681 175 585 112 q 826 333 777 239 l 817 333 q 587 405 672 333 q 511 500 540 443 q 480 642 481 556 q 541 794 480 727 q 723 860 603 860 q 899 765 819 849 m 598 677 q 678 498 598 569 q 864 426 758 427 q 882 543 882 484 q 827 694 872 636 q 704 763 781 752 q 620 737 642 756 q 598 677 598 717 "},"3":{"x_min":-63.078125,"x_max":667.375,"ha":643,"o":"m 277 708 q 245 662 268 662 q 148 715 227 662 q 69 780 69 767 q 113 897 69 840 q 231 995 158 955 q 368 1036 305 1036 q 471 1030 432 1036 q 547 1008 510 1025 q 610 968 584 990 q 667 822 667 917 q 606 647 667 726 q 453 529 545 568 q 561 451 524 509 q 598 322 598 393 q 562 185 598 251 q 470 75 526 120 q 342 6 413 31 q 216 -19 271 -19 q 116 -8 160 -19 q 31 24 72 3 q -36 81 -9 45 q -63 161 -63 118 q -32 234 -63 204 q 42 263 -1 263 q 96 208 84 263 q 121 120 107 152 q 210 66 148 66 q 323 104 272 66 q 403 206 375 141 q 431 334 431 271 q 400 436 431 397 q 305 474 369 474 l 276 473 q 245 481 256 473 q 235 513 235 489 q 239 546 235 537 q 253 558 244 555 q 270 563 262 562 q 292 564 279 564 q 410 610 358 564 q 488 719 461 655 q 514 841 514 782 q 486 930 514 900 q 400 961 459 961 q 319 933 370 961 q 232 862 269 904 q 196 786 196 819 q 237 743 206 770 q 277 708 269 716 "},"]":{"x_min":-71.21875,"x_max":568.34375,"ha":532,"o":"m 402 965 l 214 963 q 196 988 196 967 q 238 1036 196 1009 q 532 1043 458 1042 q 552 1048 545 1048 q 563 1040 558 1048 q 568 1020 568 1032 q 567 1004 568 1008 l 293 -88 q 287 -105 293 -92 q 256 -133 272 -133 q 239 -127 249 -133 q -49 -120 169 -126 q -71 -90 -71 -101 q -69 -75 -71 -80 q -38 -48 -56 -52 q 49 -49 -25 -48 q 147 -50 124 -50 q 147 -39 147 -50 q 207 207 147 -29 q 334 699 267 444 q 402 965 401 954 "},"m":{"x_min":-16.953125,"x_max":995.625,"ha":914,"o":"m 693 -21 q 653 38 653 -21 q 700 222 653 118 q 746 389 747 326 q 733 423 746 407 q 694 438 720 438 q 637 403 668 438 q 579 315 607 368 q 522 196 550 263 q 444 0 480 91 l 314 0 q 369 269 314 88 q 400 393 400 368 q 391 427 400 417 q 372 438 381 438 q 354 435 362 438 q 275 359 318 419 q 200 225 231 299 q 112 0 137 96 l -16 0 q 30 273 -11 87 q 105 514 71 459 q 146 541 118 535 q 245 547 175 547 q 210 424 236 499 q 179 327 185 348 q 478 568 324 568 q 517 538 504 568 q 530 462 530 509 q 501 313 530 416 q 623 484 540 401 q 718 551 676 533 q 804 569 759 569 q 878 465 878 569 q 826 212 878 368 q 811 161 811 169 q 817 152 811 152 q 831 156 824 152 q 849 168 838 160 q 870 186 859 177 q 896 211 880 195 q 925 239 912 227 q 959 273 938 252 l 995 309 l 995 222 q 818 56 910 134 q 693 -21 726 -21 "},"9":{"x_min":-52.21875,"x_max":621.25,"ha":585,"o":"m 478 796 q 363 933 474 933 q 268 908 314 933 q 186 830 221 882 q 129 714 151 777 q 113 595 107 651 q 154 496 118 539 q 265 453 190 453 q 311 455 295 453 q 230 366 293 373 q 206 365 220 365 q 22 430 96 365 q -52 607 -52 495 q -20 761 -52 685 q 64 896 11 838 q 194 991 118 955 q 353 1028 270 1028 q 551 950 481 1028 q 621 740 621 872 q 614 655 621 722 q 569 465 608 588 q 476 234 529 342 q 355 53 423 126 q 227 -19 287 -19 l 132 -19 q 478 796 478 508 "},"l":{"x_min":61.046875,"x_max":565.640625,"ha":375,"o":"m 455 946 q 365 821 408 946 q 263 419 322 696 q 353 543 308 470 q 425 686 398 617 q 483 889 482 832 q 455 946 484 946 m 122 -19 q 89 -7 98 -19 q 75 13 80 4 q 68 35 71 21 q 64 60 65 50 q 61 87 62 70 q 61 113 61 105 l 61 140 q 97 430 61 271 q 190 722 133 588 q 322 948 246 857 q 470 1039 398 1039 q 540 1008 514 1039 q 565 919 565 978 q 547 786 565 859 q 501 651 529 712 q 438 532 472 590 q 368 430 403 474 q 259 303 298 340 l 241 286 q 201 135 201 180 q 225 99 202 91 q 318 174 242 99 q 457 318 394 248 l 457 222 q 264 41 340 96 q 122 -19 187 -14 "},"8":{"x_min":-127.5,"x_max":679.578125,"ha":520,"o":"m 343 12 q 229 -26 287 -13 q 120 -38 172 -38 q 25 -25 68 -38 q -52 12 -18 -12 q -127 177 -127 67 q -105 266 -127 223 q -50 341 -82 309 q 15 399 -17 373 q 72 443 48 425 q 100 469 97 461 q -13 648 -13 567 q 26 798 -13 729 q 130 918 65 868 q 280 999 194 968 q 454 1029 365 1029 q 535 1021 492 1029 q 615 969 615 1005 q 590 897 615 933 q 539 861 564 861 q 517 885 534 868 q 483 912 499 902 q 392 940 442 940 q 239 887 302 940 q 175 765 175 834 q 293 607 175 671 q 392 663 303 611 q 657 775 583 771 l 679 743 q 605 702 656 730 q 525 657 554 674 q 369 550 448 614 q 505 398 475 455 q 540 273 540 335 q 513 161 540 212 q 442 74 486 110 q 343 12 398 38 m 181 400 q 21 145 21 274 q 54 61 21 94 q 157 27 88 27 q 287 76 225 27 q 349 192 349 126 q 300 312 349 259 q 181 400 251 364 "},"p":{"x_min":-92.921875,"x_max":666.6875,"ha":567,"o":"m 466 569 q 554 466 554 569 q 501 265 554 377 q 397 115 448 153 q 541 208 446 109 q 666 328 595 255 l 666 240 q 620 194 650 224 q 577 152 590 165 q 539 116 564 140 q 501 82 514 92 q 466 55 488 72 q 429 31 444 38 q 393 13 415 24 q 354 0 372 3 q 276 -10 307 -10 q 236 0 245 -10 q 227 24 227 10 q 229 42 227 37 q 234 53 230 47 q 241 64 238 59 q 250 76 244 69 q 260 88 257 84 q 271 101 263 92 q 363 246 323 160 q 403 380 402 333 q 359 427 404 427 q 217 315 288 427 q 112 56 160 205 l 94 -1 q 29 -263 83 -42 l -92 -263 q -37 -22 -67 -169 q 21 257 -8 124 q 90 493 51 389 q 125 537 103 528 q 191 547 147 547 l 237 547 q 183 357 202 424 q 292 490 223 427 q 378 551 334 532 q 466 569 423 569 "},"4":{"x_min":-36.625,"x_max":794.203125,"ha":762,"o":"m 233 332 q 365 308 290 314 q 462 550 404 408 q 533 568 474 568 l 595 568 q 497 295 583 518 q 629 327 576 298 q 681 357 638 330 q 756 411 725 384 l 794 344 q 723 289 759 319 q 668 243 687 259 q 623 211 649 227 q 493 183 575 183 q 449 184 465 183 l 401 65 q 383 20 394 41 q 362 0 371 0 l 258 0 l 254 13 q 322 197 299 138 q 130 230 235 210 q 37 201 75 201 q -14 221 6 201 q -36 263 -36 242 q -32 295 -36 284 q -18 313 -29 305 q 20 331 -4 323 l 95 358 l 294 819 q 355 965 339 946 q 384 998 370 984 q 415 1017 398 1011 q 491 1029 453 1029 q 537 1016 529 1029 q 233 332 456 832 "},"R":{"x_min":-173.625,"x_max":1083.796875,"ha":935,"o":"m 433 512 q 581 532 510 512 q 686 575 651 551 q 746 646 721 599 q 771 734 771 692 q 693 876 771 817 q 495 935 615 935 q 206 886 340 935 q 102 824 141 865 q 62 737 62 784 q 92 665 62 691 q 172 619 122 639 q 154 511 172 557 q 16 586 73 537 q -46 717 -46 641 q 1 852 -46 794 q 128 948 50 910 q 508 1029 295 1029 q 813 953 680 1029 q 913 863 875 918 q 951 746 951 809 q 926 635 951 682 q 848 552 900 587 q 572 432 763 466 q 647 352 609 411 q 714 229 686 293 q 765 122 741 166 q 803 79 788 79 q 844 96 817 79 q 904 144 870 114 q 966 202 937 174 q 1029 263 996 230 q 1075 308 1063 297 l 1083 225 q 1043 180 1076 217 q 994 128 1009 143 q 948 80 980 112 q 894 32 916 48 q 844 -2 873 16 q 748 -38 790 -38 q 680 -29 706 -38 q 637 -3 655 -21 q 609 28 619 13 q 584 67 598 44 q 564 101 571 91 q 411 406 486 306 q 401 368 409 400 q 385 309 393 337 q 359 230 377 282 q 324 148 341 179 q 279 77 307 117 q 219 15 250 37 q 50 -38 143 -38 q -99 5 -31 -38 q -173 139 -173 53 q -131 196 -173 176 q -26 216 -88 216 q -16 213 -21 216 q -18 164 -18 186 q 68 58 -16 58 q 153 116 113 58 q 222 280 193 174 q 273 488 251 385 q 312 690 295 591 q 334 804 329 790 q 341 824 339 819 q 350 840 343 829 q 368 855 358 851 q 435 868 399 868 q 489 866 471 868 q 433 512 468 698 "},"\r":{"x_min":0,"x_max":0,"ha":264},"⁴":{"x_min":10.859375,"x_max":592.765625,"ha":603,"o":"m 262 137 l 127 161 q 71 140 88 140 q 45 143 55 140 q 23 158 35 146 q 10 189 10 170 q 20 217 10 208 q 51 231 30 225 l 103 251 l 242 573 q 284 676 274 663 q 305 698 295 689 q 326 712 315 708 q 380 720 354 720 q 412 711 407 720 q 193 234 343 555 q 290 210 238 220 q 359 384 339 333 q 409 397 368 397 l 453 397 q 380 202 447 371 q 479 223 442 202 q 516 244 485 225 q 569 282 547 263 l 592 241 q 533 194 564 221 q 488 155 502 167 q 381 127 450 127 q 351 128 362 127 l 316 46 q 290 0 304 0 l 216 0 l 213 9 q 262 137 246 97 "},"o":{"x_min":21.03125,"x_max":697.21875,"ha":615,"o":"m 463 560 q 448 531 463 541 q 242 454 314 531 q 176 289 176 381 q 213 147 176 198 q 307 96 251 96 q 417 156 363 95 q 344 238 366 188 q 322 341 322 287 q 354 428 322 395 q 448 462 387 462 q 538 429 510 462 q 567 347 567 396 q 508 177 567 248 q 534 170 525 170 q 556 176 543 170 q 586 197 569 182 q 616 224 603 211 q 653 263 629 237 q 695 305 678 288 l 697 225 q 605 140 640 165 q 537 115 571 115 q 476 124 503 115 q 352 20 423 61 q 204 -19 280 -19 q 47 84 94 -19 q 21 215 21 142 q 138 474 21 379 q 448 569 255 569 q 463 560 462 569 m 495 330 q 447 392 495 393 q 399 324 399 390 q 415 256 399 290 q 455 204 431 221 q 485 262 474 225 q 495 330 495 299 "},"5":{"x_min":-144.46875,"x_max":666.6875,"ha":603,"o":"m -78 32 q -125 80 -106 50 q -144 144 -144 111 q -110 208 -144 177 q -25 240 -77 240 q -6 140 -25 175 q 120 59 34 65 q 351 191 284 59 q 385 335 385 262 q 325 463 385 408 q 183 518 265 518 q 25 429 102 518 q -2 446 4 432 q 76 751 15 523 q 147 989 137 979 q 164 999 157 999 l 168 999 q 427 982 342 982 q 628 995 512 982 l 666 983 q 650 932 663 955 q 621 878 637 908 q 587 833 604 848 q 518 815 570 817 l 482 815 q 299 845 373 810 q 272 860 291 849 q 208 884 235 884 q 178 784 198 851 q 131 614 139 647 q 308 647 213 652 q 473 572 402 641 q 543 408 543 503 q 504 234 543 312 q 403 101 465 156 q 260 13 341 46 q 96 -19 179 -19 q -2 -2 44 -19 q -78 32 -50 14 "}}}
